<?xml version="1.0" standalone="no"?>
<!DOCTYPE svg PUBLIC "-//W3C//DTD SVG 20010904//EN"
 "http://www.w3.org/TR/2001/REC-SVG-20010904/DTD/svg10.dtd">
<svg version="1.0" xmlns="http://www.w3.org/2000/svg"
 width="100.0000000pt" height="100.0000000pt" viewBox="0 0 100.0000000 100.0000000"
 preserveAspectRatio="xMidYMid meet">

<g transform="translate(0.000000,1000.000000) scale(0.100000,-0.100000)"
fill="#ffffff" stroke="none">
<path d="M3399 8459 c-99 -15 -184 -83 -219 -176 -19 -51 -20 -76 -20 -512 l0
-458 -88 -12 c-436 -56 -814 -328 -1007 -725 -383 -787 91 -1713 955 -1866 97
-17 176 -18 998 -19 l892 -1 0 320 0 320 -877 0 c-981 0 -935 -3 -1093 72 -69
33 -100 56 -170 127 -146 148 -207 303 -198 505 9 178 74 323 199 446 111 109
237 170 396 191 50 6 379 9 911 7 l832 -3 0 318 0 317 -595 0 -594 0 -3 473
c-3 457 -4 473 -24 517 -53 112 -174 177 -295 159z"/>
<path d="M6567 8459 c-89 -14 -169 -77 -209 -166 -17 -39 -19 -78 -21 -510
l-2 -468 -592 -3 -592 -2 -6 -33 c-3 -17 -4 -606 -3 -1307 l3 -1275 915 0
c1012 0 969 -2 1175 66 387 129 704 453 829 847 87 276 76 613 -30 872 -74
183 -153 301 -298 446 -220 221 -466 340 -781 380 -27 3 -51 7 -52 8 -1 1 -4
211 -5 466 -3 448 -4 467 -24 510 -58 125 -173 188 -307 169z m408 -1802 c243
-69 427 -252 491 -487 27 -102 23 -264 -9 -365 -75 -230 -251 -396 -484 -456
-71 -18 -115 -19 -675 -19 l-598 0 0 669 c0 526 3 670 13 675 6 2 280 4 607 2
526 -2 602 -4 655 -19z"/>
<path d="M6720 6220 c-132 -62 -180 -194 -117 -321 107 -219 437 -140 437 104
0 66 -19 120 -58 160 -66 70 -181 95 -262 57z"/>
<path d="M6142 6139 c-111 -55 -106 -227 8 -273 88 -35 162 -9 204 71 28 55
19 117 -26 168 -50 58 -113 70 -186 34z"/>
<path d="M3155 6227 c-117 -46 -180 -152 -157 -265 11 -53 68 -146 84 -136 4
3 11 -1 14 -10 8 -22 78 -46 132 -46 94 0 199 75 222 160 52 186 -124 363
-295 297z"/>
<path d="M3753 6143 c-52 -29 -76 -69 -81 -133 -3 -42 0 -60 11 -72 9 -9 14
-18 11 -21 -11 -11 67 -59 104 -64 84 -11 163 46 177 126 8 50 -24 123 -67
154 -37 27 -114 32 -155 10z"/>
<path d="M8280 3453 c0 -51 3 -93 8 -93 18 -1 229 -1 245 -1 15 1 17 12 17 91
0 65 -3 90 -12 91 -7 0 -68 1 -136 2 l-122 2 0 -92z"/>
<path d="M959 3498 c-133 -13 -194 -62 -226 -179 -22 -83 -25 -454 -4 -537 17
-68 69 -125 131 -143 52 -16 420 -20 533 -6 l67 9 0 91 0 92 -200 0 c-178 0
-201 2 -217 18 -16 16 -18 38 -18 200 0 198 5 231 36 247 21 12 344 15 373 4
14 -5 16 5 16 89 l0 95 -32 6 c-101 18 -348 25 -459 14z"/>
<path d="M1702 3269 c-97 -11 -145 -38 -178 -102 -21 -39 -30 -162 -23 -303 7
-146 20 -177 94 -214 47 -23 61 -25 241 -28 266 -5 342 16 381 106 19 45 28
269 14 351 -21 127 -67 172 -196 189 -83 12 -231 12 -333 1z m241 -158 c16
-16 23 -275 8 -313 -10 -27 -13 -28 -80 -28 -49 0 -72 4 -81 15 -9 11 -12 57
-11 163 1 139 3 148 24 166 17 14 33 17 75 14 29 -3 58 -10 65 -17z"/>
<path d="M2448 3269 c-48 -4 -101 -10 -118 -14 l-30 -7 0 -309 0 -309 135 0
135 0 0 245 0 244 36 7 c43 8 112 0 128 -16 7 -7 12 -88 14 -246 l3 -235 132
3 132 3 0 250 c-1 236 -2 252 -22 291 -25 47 -52 68 -114 84 -53 15 -310 20
-431 9z"/>
<path d="M4060 3271 c-169 -21 -211 -82 -212 -314 -1 -218 16 -272 100 -310
44 -21 61 -22 292 -21 135 0 263 5 285 10 l40 10 3 62 3 63 -53 -6 c-29 -4
-122 -7 -206 -7 -175 -1 -179 1 -185 75 l-4 47 233 0 234 0 0 73 c0 94 -17
194 -38 232 -20 34 -67 63 -120 76 -53 13 -295 19 -372 10z m234 -153 c9 -12
16 -42 16 -65 l0 -43 -90 0 c-99 0 -95 -3 -91 70 2 46 23 60 92 60 48 0 60 -4
73 -22z"/>
<path d="M4760 3268 c-36 -5 -75 -10 -87 -13 l-23 -5 0 -310 0 -310 135 0 135
0 0 244 c0 203 2 245 14 249 8 3 67 4 130 3 l116 -3 0 63 c0 73 7 69 -130 84
-99 11 -181 11 -290 -2z"/>
<path d="M5414 3271 c-90 -9 -142 -36 -172 -88 -48 -86 -53 -342 -9 -433 17
-35 33 -50 72 -70 46 -23 60 -24 202 -25 l153 0 0 -71 c0 -55 -4 -75 -17 -85
-13 -11 -58 -14 -210 -12 l-193 2 0 -64 c0 -57 2 -63 23 -69 51 -12 259 -27
357 -25 191 5 257 28 291 103 17 38 19 72 19 428 l0 387 -32 5 c-80 13 -112
16 -258 20 -85 2 -187 1 -226 -3z m234 -149 c9 -3 12 -45 12 -163 l0 -159 -68
0 c-99 0 -105 7 -110 124 -6 129 3 185 31 196 22 9 111 11 135 2z"/>
<path d="M6209 3270 c-179 -17 -222 -96 -213 -387 5 -152 27 -205 104 -241 30
-14 72 -17 285 -16 138 0 268 5 290 10 l40 10 -1 59 0 60 -34 -2 c-19 -1 -111
-2 -204 -3 -193 -1 -196 1 -203 74 l-5 46 237 0 238 0 -7 118 c-12 197 -48
247 -196 270 -77 11 -226 13 -331 2z m225 -143 c12 -9 20 -31 24 -65 l5 -52
-98 0 -98 0 6 53 c4 32 13 57 24 65 22 16 114 16 137 -1z"/>
<path d="M7029 3276 c-2 -2 -44 -6 -92 -10 -49 -3 -99 -9 -113 -12 l-24 -6 0
-309 0 -309 135 0 135 0 0 245 0 245 26 6 c34 9 122 0 136 -14 7 -7 11 -93 12
-244 l1 -233 133 -3 132 -3 1 213 c2 270 2 275 -17 325 -30 83 -90 104 -304
109 -86 2 -159 2 -161 0z"/>
<path d="M7757 3270 c-78 -14 -119 -40 -147 -96 -24 -47 -25 -56 -25 -239 0
-219 6 -241 86 -285 43 -25 47 -25 264 -24 121 0 238 5 260 10 l40 10 1 54 c0
30 -1 60 -3 65 -2 6 -65 9 -172 7 -190 -4 -200 -1 -202 66 -2 113 0 234 6 251
9 31 38 35 208 34 l157 -2 0 64 c0 36 -1 65 -2 65 -2 0 -30 5 -63 10 -79 14
-347 20 -408 10z"/>
<path d="M8792 3270 c-146 -13 -142 -10 -142 -80 l0 -59 188 5 c221 6 232 2
232 -72 l0 -44 -167 0 c-193 0 -238 -12 -269 -72 -24 -46 -25 -181 -1 -225 23
-44 73 -79 130 -94 49 -12 474 -7 545 7 l32 6 0 237 c0 130 -5 252 -10 272
-12 43 -51 82 -104 104 -46 19 -284 27 -434 15z m278 -441 l0 -69 -80 0 c-88
0 -100 8 -100 69 0 52 27 69 109 69 l71 0 0 -69z"/>
<path d="M3040 3253 c0 -5 40 -145 88 -313 l88 -305 220 -3 221 -2 90 315 90
315 -138 0 -138 0 -9 -32 c-4 -18 -30 -120 -57 -225 -27 -106 -52 -193 -55
-193 -3 0 -23 66 -43 148 -21 81 -47 182 -59 225 l-20 77 -139 0 c-76 0 -139
-3 -139 -7z"/>
<path d="M8280 2945 l0 -315 135 0 135 0 0 315 0 315 -135 0 -135 0 0 -315z"/>
<path d="M6770 2435 l0 -75 105 0 105 0 0 75 0 75 -105 0 -105 0 0 -75z"/>
<path d="M7692 2438 l3 -73 103 -3 102 -3 0 76 0 75 -105 0 -106 0 3 -72z"/>
<path d="M9110 2145 l0 -365 105 0 105 0 0 365 0 365 -105 0 -105 0 0 -365z"/>
<path d="M6028 2464 c-5 -4 -8 -160 -8 -347 l0 -339 273 4 c248 3 275 5 312
23 22 11 47 34 57 50 52 92 50 430 -4 526 -14 26 -37 47 -67 61 -43 21 -61 23
-301 26 -140 2 -258 1 -262 -4z m419 -194 c16 -48 16 -268 0 -300 -12 -24 -18
-25 -105 -28 l-92 -3 0 186 0 186 93 -3 92 -3 12 -35z"/>
<path d="M730 2160 l0 -300 2315 0 c1477 0 2315 -3 2315 -10 0 -21 86 -91 133
-106 167 -55 339 77 325 248 -4 48 -43 148 -57 148 -4 0 -18 11 -33 24 -90 85
-268 70 -343 -28 l-27 -36 -2194 0 -2194 0 -2 178 -3 177 -117 3 -118 3 0
-301z"/>
<path d="M8028 2368 l-3 -83 -42 -3 -43 -3 0 -55 0 -54 45 0 45 0 0 -144 c0
-78 5 -157 11 -174 6 -18 26 -41 47 -54 33 -21 49 -23 157 -23 66 0 137 4 158
8 l38 8 -3 47 -3 47 -70 -3 c-38 -2 -82 1 -97 7 l-28 11 0 135 0 135 85 0 85
0 0 55 0 55 -85 0 -85 0 0 85 0 85 -105 0 -104 0 -3 -82z"/>
<path d="M7208 2291 c-77 -9 -107 -25 -139 -78 -22 -35 -24 -48 -24 -173 0
-213 19 -232 233 -238 l132 -4 0 -58 c0 -84 -3 -85 -187 -83 l-153 2 0 -49 0
-49 48 -8 c60 -10 368 -11 404 0 40 11 86 60 93 99 3 18 4 166 3 328 l-3 295
-45 6 c-81 11 -293 17 -362 10z m202 -247 l0 -134 -56 0 c-92 0 -94 3 -94 134
0 80 4 117 13 124 13 11 90 20 120 13 15 -3 17 -18 17 -137z"/>
<path d="M8616 2290 c-55 -5 -106 -12 -113 -14 -10 -4 -13 -19 -11 -48 l3 -43
151 4 c144 3 153 2 173 -18 12 -12 21 -34 21 -51 l0 -30 -122 0 c-137 -1 -192
-10 -219 -37 -25 -25 -38 -102 -28 -160 18 -96 81 -123 283 -122 72 0 163 4
201 9 39 6 76 11 83 12 9 1 12 46 10 197 -3 227 -10 250 -81 281 -52 23 -213
32 -351 20z m224 -354 l0 -55 -42 -6 c-85 -11 -131 24 -114 89 6 25 9 26 81
26 l75 0 0 -54z"/>
<path d="M6772 2033 l3 -248 103 -3 102 -3 0 251 0 250 -105 0 -105 0 2 -247z"/>
<path d="M7692 2033 l3 -248 103 -3 102 -3 0 251 0 250 -105 0 -105 0 2 -247z"/>
</g>
</svg>
