<svg width="300" height="221" viewBox="0 0 300 221" fill="none" xmlns="http://www.w3.org/2000/svg">
<g filter="url(#filter0_d_2_8)">
<rect x="14" y="10" width="272" height="193" rx="15" fill="white"/>
<rect x="9" y="5" width="282" height="203" rx="20" stroke="#FA9A00" stroke-width="10"/>
</g>
<path d="M37.3617 79.108V75.544H41.4387C42.4647 75.544 43.3737 75.391 44.1657 75.085C44.9757 74.761 45.6597 74.311 46.2177 73.735C46.7757 73.159 47.1987 72.484 47.4867 71.71C47.7927 70.918 47.9457 70.045 47.9457 69.091C47.9457 68.101 47.7927 67.219 47.4867 66.445C47.1987 65.653 46.7757 64.978 46.2177 64.42C45.6597 63.862 44.9757 63.439 44.1657 63.151C43.3737 62.863 42.4647 62.719 41.4387 62.719H37.3617V59.155H41.1957C42.9777 59.155 44.5347 59.416 45.8667 59.938C47.1987 60.46 48.3057 61.18 49.1877 62.098C50.0697 62.998 50.7267 64.033 51.1587 65.203C51.6087 66.355 51.8337 67.552 51.8337 68.794V69.388C51.8337 70.576 51.6087 71.746 51.1587 72.898C50.7267 74.05 50.0697 75.094 49.1877 76.03C48.3057 76.966 47.1987 77.713 45.8667 78.271C44.5347 78.829 42.9777 79.108 41.1957 79.108H37.3617ZM34.0677 79.108V59.155H37.9017V79.108H34.0677ZM61.5309 79.513C60.2709 79.513 59.1639 79.297 58.2099 78.865C57.2739 78.433 56.4909 77.857 55.8609 77.137C55.2489 76.399 54.7809 75.58 54.4569 74.68C54.1509 73.78 53.9979 72.862 53.9979 71.926V71.413C53.9979 70.441 54.1509 69.505 54.4569 68.605C54.7809 67.687 55.2489 66.877 55.8609 66.175C56.4909 65.455 57.2649 64.888 58.1829 64.474C59.1009 64.042 60.1629 63.826 61.3689 63.826C62.9529 63.826 64.2759 64.177 65.3379 64.879C66.4179 65.563 67.2279 66.472 67.7679 67.606C68.3079 68.722 68.5779 69.928 68.5779 71.224V72.574H55.5909V70.279H66.2289L65.0679 71.413C65.0679 70.477 64.9329 69.676 64.6629 69.01C64.3929 68.344 63.9789 67.831 63.4209 67.471C62.8809 67.111 62.1969 66.931 61.3689 66.931C60.5409 66.931 59.8389 67.12 59.2629 67.498C58.6869 67.876 58.2459 68.425 57.9399 69.145C57.6519 69.847 57.5079 70.693 57.5079 71.683C57.5079 72.601 57.6519 73.42 57.9399 74.14C58.2279 74.842 58.6689 75.4 59.2629 75.814C59.8569 76.21 60.6129 76.408 61.5309 76.408C62.4489 76.408 63.1959 76.228 63.7719 75.868C64.3479 75.49 64.7169 75.031 64.8789 74.491H68.3349C68.1189 75.499 67.7049 76.381 67.0929 77.137C66.4809 77.893 65.6979 78.478 64.7439 78.892C63.8079 79.306 62.7369 79.513 61.5309 79.513ZM77.0321 79.459C75.0161 79.459 73.4321 79.036 72.2801 78.19C71.1461 77.326 70.5521 76.138 70.4981 74.626H73.8731C73.9271 75.13 74.2061 75.589 74.7101 76.003C75.2141 76.417 76.0061 76.624 77.0861 76.624C77.9861 76.624 78.6971 76.462 79.2191 76.138C79.7591 75.814 80.0291 75.373 80.0291 74.815C80.0291 74.329 79.8221 73.942 79.4081 73.654C79.0121 73.366 78.3281 73.177 77.3561 73.087L76.0601 72.952C74.4221 72.772 73.1621 72.304 72.2801 71.548C71.3981 70.792 70.9571 69.784 70.9571 68.524C70.9571 67.516 71.2091 66.67 71.7131 65.986C72.2171 65.302 72.9101 64.789 73.7921 64.447C74.6921 64.087 75.7181 63.907 76.8701 63.907C78.6701 63.907 80.1281 64.303 81.2441 65.095C82.3601 65.887 82.9451 67.048 82.9991 68.578H79.6241C79.5881 68.074 79.3361 67.642 78.8681 67.282C78.4001 66.922 77.7251 66.742 76.8431 66.742C76.0511 66.742 75.4391 66.895 75.0071 67.201C74.5751 67.507 74.3591 67.903 74.3591 68.389C74.3591 68.857 74.5301 69.217 74.8721 69.469C75.2321 69.721 75.8081 69.892 76.6001 69.982L77.8961 70.117C79.6241 70.297 80.9741 70.774 81.9461 71.548C82.9361 72.322 83.4311 73.366 83.4311 74.68C83.4311 75.652 83.1611 76.498 82.6211 77.218C82.0991 77.92 81.3611 78.469 80.4071 78.865C79.4531 79.261 78.3281 79.459 77.0321 79.459ZM92.6064 79.486C91.5804 79.486 90.6354 79.297 89.7714 78.919C88.9074 78.541 88.1604 78.01 87.5304 77.326C86.9004 76.642 86.4144 75.85 86.0724 74.95C85.7304 74.032 85.5594 73.042 85.5594 71.98V71.413C85.5594 70.369 85.7214 69.388 86.0454 68.47C86.3874 67.552 86.8554 66.751 87.4494 66.067C88.0614 65.383 88.7904 64.852 89.6364 64.474C90.5004 64.078 91.4544 63.88 92.4984 63.88C93.6504 63.88 94.6584 64.132 95.5224 64.636C96.4044 65.122 97.1064 65.86 97.6284 66.85C98.1504 67.84 98.4384 69.082 98.4924 70.576L97.3854 69.28V59.29H101.138V79H98.1684V72.763H98.8164C98.7624 74.257 98.4564 75.508 97.8984 76.516C97.3404 77.506 96.6024 78.253 95.6844 78.757C94.7844 79.243 93.7584 79.486 92.6064 79.486ZM93.4434 76.327C94.1814 76.327 94.8564 76.165 95.4684 75.841C96.0804 75.499 96.5664 75.013 96.9264 74.383C97.3044 73.735 97.4934 72.979 97.4934 72.115V71.035C97.4934 70.171 97.3044 69.451 96.9264 68.875C96.5484 68.281 96.0534 67.831 95.4414 67.525C94.8294 67.201 94.1634 67.039 93.4434 67.039C92.6334 67.039 91.9134 67.237 91.2834 67.633C90.6714 68.011 90.1854 68.551 89.8254 69.253C89.4834 69.955 89.3124 70.774 89.3124 71.71C89.3124 72.646 89.4924 73.465 89.8524 74.167C90.2124 74.851 90.6984 75.382 91.3104 75.76C91.9404 76.138 92.6514 76.327 93.4434 76.327ZM111.971 79.513C110.711 79.513 109.604 79.297 108.65 78.865C107.714 78.433 106.931 77.857 106.301 77.137C105.689 76.399 105.221 75.58 104.897 74.68C104.591 73.78 104.438 72.862 104.438 71.926V71.413C104.438 70.441 104.591 69.505 104.897 68.605C105.221 67.687 105.689 66.877 106.301 66.175C106.931 65.455 107.705 64.888 108.623 64.474C109.541 64.042 110.603 63.826 111.809 63.826C113.393 63.826 114.716 64.177 115.778 64.879C116.858 65.563 117.668 66.472 118.208 67.606C118.748 68.722 119.018 69.928 119.018 71.224V72.574H106.031V70.279H116.669L115.508 71.413C115.508 70.477 115.373 69.676 115.103 69.01C114.833 68.344 114.419 67.831 113.861 67.471C113.321 67.111 112.637 66.931 111.809 66.931C110.981 66.931 110.279 67.12 109.703 67.498C109.127 67.876 108.686 68.425 108.38 69.145C108.092 69.847 107.948 70.693 107.948 71.683C107.948 72.601 108.092 73.42 108.38 74.14C108.668 74.842 109.109 75.4 109.703 75.814C110.297 76.21 111.053 76.408 111.971 76.408C112.889 76.408 113.636 76.228 114.212 75.868C114.788 75.49 115.157 75.031 115.319 74.491H118.775C118.559 75.499 118.145 76.381 117.533 77.137C116.921 77.893 116.138 78.478 115.184 78.892C114.248 79.306 113.177 79.513 111.971 79.513ZM134.11 79.513C132.598 79.513 131.293 79.225 130.195 78.649C129.115 78.073 128.287 77.308 127.711 76.354C127.135 75.382 126.847 74.302 126.847 73.114H130.546C130.546 74.068 130.861 74.842 131.491 75.436C132.139 76.012 133.012 76.3 134.11 76.3C134.848 76.3 135.478 76.165 136 75.895C136.54 75.607 136.954 75.22 137.242 74.734C137.53 74.23 137.674 73.654 137.674 73.006C137.674 72.034 137.359 71.242 136.729 70.63C136.099 70 135.235 69.685 134.137 69.685C133.597 69.685 133.12 69.757 132.706 69.901C132.31 70.045 131.959 70.234 131.653 70.468L129.898 67.444L136.378 63.016L136.135 62.557H127.657V59.29H140.536V63.232L133.867 67.66L131.788 67.282C132.13 67.174 132.499 67.093 132.895 67.039C133.291 66.967 133.723 66.931 134.191 66.931C135.685 66.931 136.963 67.192 138.025 67.714C139.105 68.218 139.933 68.92 140.509 69.82C141.085 70.72 141.373 71.755 141.373 72.925V73.276C141.373 74.41 141.085 75.454 140.509 76.408C139.933 77.344 139.105 78.1 138.025 78.676C136.945 79.234 135.64 79.513 134.11 79.513ZM151.006 79V59.29H156.244L161.185 71.062H161.671L166.585 59.29H171.904V79H168.097V62.179L168.583 62.233L163.264 74.977H159.349L154.003 62.233L154.516 62.179V79H151.006ZM185.083 79.486C183.877 79.486 182.815 79.234 181.897 78.73C180.979 78.208 180.259 77.452 179.737 76.462C179.215 75.472 178.927 74.275 178.873 72.871H179.44V79H176.47V59.29H180.223V69.145L179.224 70.684C179.296 69.172 179.593 67.912 180.115 66.904C180.655 65.896 181.375 65.14 182.275 64.636C183.175 64.132 184.192 63.88 185.326 63.88C186.334 63.88 187.252 64.069 188.08 64.447C188.908 64.825 189.619 65.356 190.213 66.04C190.807 66.706 191.257 67.489 191.563 68.389C191.887 69.289 192.049 70.27 192.049 71.332V71.899C192.049 72.961 191.887 73.951 191.563 74.869C191.239 75.787 190.771 76.597 190.159 77.299C189.547 77.983 188.809 78.523 187.945 78.919C187.099 79.297 186.145 79.486 185.083 79.486ZM184.246 76.327C185.056 76.327 185.758 76.129 186.352 75.733C186.964 75.319 187.441 74.761 187.783 74.059C188.125 73.357 188.296 72.547 188.296 71.629C188.296 70.693 188.125 69.883 187.783 69.199C187.441 68.515 186.964 67.984 186.352 67.606C185.758 67.228 185.056 67.039 184.246 67.039C183.508 67.039 182.824 67.201 182.194 67.525C181.582 67.849 181.078 68.326 180.682 68.956C180.304 69.586 180.115 70.342 180.115 71.224V72.304C180.115 73.15 180.313 73.87 180.709 74.464C181.105 75.058 181.618 75.517 182.248 75.841C182.878 76.165 183.544 76.327 184.246 76.327ZM195.349 84.4V64.339H198.319V70.657L197.86 70.63C197.932 69.136 198.238 67.885 198.778 66.877C199.336 65.869 200.074 65.122 200.992 64.636C201.91 64.132 202.936 63.88 204.07 63.88C205.114 63.88 206.05 64.069 206.878 64.447C207.724 64.825 208.444 65.356 209.038 66.04C209.65 66.724 210.118 67.525 210.442 68.443C210.766 69.343 210.928 70.315 210.928 71.359V71.926C210.928 72.988 210.766 73.978 210.442 74.896C210.136 75.796 209.677 76.597 209.065 77.299C208.471 77.983 207.751 78.523 206.905 78.919C206.059 79.297 205.114 79.486 204.07 79.486C202.972 79.486 201.964 79.261 201.046 78.811C200.146 78.343 199.417 77.632 198.859 76.678C198.301 75.706 197.986 74.455 197.914 72.925L199.102 74.734V84.4H195.349ZM203.125 76.327C203.935 76.327 204.637 76.129 205.231 75.733C205.843 75.337 206.32 74.788 206.662 74.086C207.004 73.366 207.175 72.556 207.175 71.656C207.175 70.72 207.004 69.91 206.662 69.226C206.32 68.542 205.843 68.011 205.231 67.633C204.637 67.237 203.935 67.039 203.125 67.039C202.387 67.039 201.703 67.201 201.073 67.525C200.461 67.849 199.957 68.326 199.561 68.956C199.183 69.586 198.994 70.342 198.994 71.224V72.304C198.994 73.15 199.192 73.87 199.588 74.464C199.984 75.058 200.497 75.517 201.127 75.841C201.757 76.165 202.423 76.327 203.125 76.327ZM219.547 79.459C217.531 79.459 215.947 79.036 214.795 78.19C213.661 77.326 213.067 76.138 213.013 74.626H216.388C216.442 75.13 216.721 75.589 217.225 76.003C217.729 76.417 218.521 76.624 219.601 76.624C220.501 76.624 221.212 76.462 221.734 76.138C222.274 75.814 222.544 75.373 222.544 74.815C222.544 74.329 222.337 73.942 221.923 73.654C221.527 73.366 220.843 73.177 219.871 73.087L218.575 72.952C216.937 72.772 215.677 72.304 214.795 71.548C213.913 70.792 213.472 69.784 213.472 68.524C213.472 67.516 213.724 66.67 214.228 65.986C214.732 65.302 215.425 64.789 216.307 64.447C217.207 64.087 218.233 63.907 219.385 63.907C221.185 63.907 222.643 64.303 223.759 65.095C224.875 65.887 225.46 67.048 225.514 68.578H222.139C222.103 68.074 221.851 67.642 221.383 67.282C220.915 66.922 220.24 66.742 219.358 66.742C218.566 66.742 217.954 66.895 217.522 67.201C217.09 67.507 216.874 67.903 216.874 68.389C216.874 68.857 217.045 69.217 217.387 69.469C217.747 69.721 218.323 69.892 219.115 69.982L220.411 70.117C222.139 70.297 223.489 70.774 224.461 71.548C225.451 72.322 225.946 73.366 225.946 74.68C225.946 75.652 225.676 76.498 225.136 77.218C224.614 77.92 223.876 78.469 222.922 78.865C221.968 79.261 220.843 79.459 219.547 79.459ZM240.948 79.486C239.922 79.486 238.977 79.297 238.113 78.919C237.249 78.541 236.502 78.01 235.872 77.326C235.242 76.642 234.756 75.85 234.414 74.95C234.072 74.032 233.901 73.042 233.901 71.98V71.413C233.901 70.369 234.063 69.388 234.387 68.47C234.729 67.552 235.197 66.751 235.791 66.067C236.403 65.383 237.132 64.852 237.978 64.474C238.842 64.078 239.796 63.88 240.84 63.88C241.992 63.88 243 64.132 243.864 64.636C244.746 65.122 245.448 65.86 245.97 66.85C246.492 67.84 246.78 69.082 246.834 70.576L245.727 69.28V59.29H249.48V79H246.51V72.763H247.158C247.104 74.257 246.798 75.508 246.24 76.516C245.682 77.506 244.944 78.253 244.026 78.757C243.126 79.243 242.1 79.486 240.948 79.486ZM241.785 76.327C242.523 76.327 243.198 76.165 243.81 75.841C244.422 75.499 244.908 75.013 245.268 74.383C245.646 73.735 245.835 72.979 245.835 72.115V71.035C245.835 70.171 245.646 69.451 245.268 68.875C244.89 68.281 244.395 67.831 243.783 67.525C243.171 67.201 242.505 67.039 241.785 67.039C240.975 67.039 240.255 67.237 239.625 67.633C239.013 68.011 238.527 68.551 238.167 69.253C237.825 69.955 237.654 70.774 237.654 71.71C237.654 72.646 237.834 73.465 238.194 74.167C238.554 74.851 239.04 75.382 239.652 75.76C240.282 76.138 240.993 76.327 241.785 76.327ZM260.313 79.513C259.053 79.513 257.946 79.297 256.992 78.865C256.056 78.433 255.273 77.857 254.643 77.137C254.031 76.399 253.563 75.58 253.239 74.68C252.933 73.78 252.78 72.862 252.78 71.926V71.413C252.78 70.441 252.933 69.505 253.239 68.605C253.563 67.687 254.031 66.877 254.643 66.175C255.273 65.455 256.047 64.888 256.965 64.474C257.883 64.042 258.945 63.826 260.151 63.826C261.735 63.826 263.058 64.177 264.12 64.879C265.2 65.563 266.01 66.472 266.55 67.606C267.09 68.722 267.36 69.928 267.36 71.224V72.574H254.373V70.279H265.011L263.85 71.413C263.85 70.477 263.715 69.676 263.445 69.01C263.175 68.344 262.761 67.831 262.203 67.471C261.663 67.111 260.979 66.931 260.151 66.931C259.323 66.931 258.621 67.12 258.045 67.498C257.469 67.876 257.028 68.425 256.722 69.145C256.434 69.847 256.29 70.693 256.29 71.683C256.29 72.601 256.434 73.42 256.722 74.14C257.01 74.842 257.451 75.4 258.045 75.814C258.639 76.21 259.395 76.408 260.313 76.408C261.231 76.408 261.978 76.228 262.554 75.868C263.13 75.49 263.499 75.031 263.661 74.491H267.117C266.901 75.499 266.487 76.381 265.875 77.137C265.263 77.893 264.48 78.478 263.526 78.892C262.59 79.306 261.519 79.513 260.313 79.513ZM31.2559 113V98.339H35.0089V113H31.2559ZM29.2039 101.147V98.339H35.0089V101.147H29.2039ZM32.6329 96.584C31.8949 96.584 31.3459 96.395 30.9859 96.017C30.6439 95.621 30.4729 95.135 30.4729 94.559C30.4729 93.947 30.6439 93.452 30.9859 93.074C31.3459 92.696 31.8949 92.507 32.6329 92.507C33.3709 92.507 33.9109 92.696 34.2529 93.074C34.5949 93.452 34.7659 93.947 34.7659 94.559C34.7659 95.135 34.5949 95.621 34.2529 96.017C33.9109 96.395 33.3709 96.584 32.6329 96.584ZM39.3342 113V98.339H42.3042V104.63H42.0342C42.0342 103.136 42.2322 101.894 42.6282 100.904C43.0242 99.896 43.6092 99.14 44.3832 98.636C45.1752 98.132 46.1562 97.88 47.3262 97.88H47.4882C49.2342 97.88 50.5572 98.447 51.4572 99.581C52.3572 100.697 52.8072 102.371 52.8072 104.603V113H49.0542V104.279C49.0542 103.379 48.7932 102.65 48.2712 102.092C47.7672 101.534 47.0652 101.255 46.1652 101.255C45.2472 101.255 44.5002 101.543 43.9242 102.119C43.3662 102.677 43.0872 103.433 43.0872 104.387V113H39.3342ZM63.214 113.189C61.864 113.189 60.748 113.018 59.866 112.676C59.002 112.316 58.354 111.722 57.922 110.894C57.49 110.048 57.274 108.914 57.274 107.492L57.301 94.208H60.811L60.784 107.735C60.784 108.455 60.973 109.013 61.351 109.409C61.747 109.787 62.305 109.976 63.025 109.976H65.32V113.189H63.214ZM54.952 101.093V98.339H65.32V101.093H54.952ZM74.9518 113.513C73.6918 113.513 72.5848 113.297 71.6308 112.865C70.6948 112.433 69.9118 111.857 69.2818 111.137C68.6698 110.399 68.2018 109.58 67.8778 108.68C67.5718 107.78 67.4188 106.862 67.4188 105.926V105.413C67.4188 104.441 67.5718 103.505 67.8778 102.605C68.2018 101.687 68.6698 100.877 69.2818 100.175C69.9118 99.455 70.6858 98.888 71.6038 98.474C72.5218 98.042 73.5838 97.826 74.7898 97.826C76.3738 97.826 77.6968 98.177 78.7588 98.879C79.8388 99.563 80.6488 100.472 81.1888 101.606C81.7288 102.722 81.9988 103.928 81.9988 105.224V106.574H69.0118V104.279H79.6498L78.4888 105.413C78.4888 104.477 78.3538 103.676 78.0838 103.01C77.8138 102.344 77.3998 101.831 76.8418 101.471C76.3018 101.111 75.6178 100.931 74.7898 100.931C73.9618 100.931 73.2598 101.12 72.6838 101.498C72.1078 101.876 71.6668 102.425 71.3608 103.145C71.0728 103.847 70.9288 104.693 70.9288 105.683C70.9288 106.601 71.0728 107.42 71.3608 108.14C71.6488 108.842 72.0898 109.4 72.6838 109.814C73.2778 110.21 74.0338 110.408 74.9518 110.408C75.8698 110.408 76.6168 110.228 77.1928 109.868C77.7688 109.49 78.1378 109.031 78.2998 108.491H81.7558C81.5398 109.499 81.1258 110.381 80.5138 111.137C79.9018 111.893 79.1188 112.478 78.1648 112.892C77.2288 113.306 76.1578 113.513 74.9518 113.513ZM85.134 113V98.339H88.104V104.549H88.023C88.023 102.443 88.473 100.85 89.373 99.77C90.273 98.69 91.596 98.15 93.342 98.15H93.882V101.417H92.856C91.596 101.417 90.615 101.759 89.913 102.443C89.229 103.109 88.887 104.081 88.887 105.359V113H85.134ZM96.3928 113V98.339H99.3628V104.63H99.0928C99.0928 103.136 99.2908 101.894 99.6868 100.904C100.083 99.896 100.668 99.14 101.442 98.636C102.234 98.132 103.215 97.88 104.385 97.88H104.547C106.293 97.88 107.616 98.447 108.516 99.581C109.416 100.697 109.866 102.371 109.866 104.603V113H106.113V104.279C106.113 103.379 105.852 102.65 105.33 102.092C104.826 101.534 104.124 101.255 103.224 101.255C102.306 101.255 101.559 101.543 100.983 102.119C100.425 102.677 100.146 103.433 100.146 104.387V113H96.3928ZM120.462 113.513C119.202 113.513 118.095 113.297 117.141 112.865C116.205 112.433 115.422 111.857 114.792 111.137C114.18 110.399 113.712 109.58 113.388 108.68C113.082 107.78 112.929 106.862 112.929 105.926V105.413C112.929 104.441 113.082 103.505 113.388 102.605C113.712 101.687 114.18 100.877 114.792 100.175C115.422 99.455 116.196 98.888 117.114 98.474C118.032 98.042 119.094 97.826 120.3 97.826C121.884 97.826 123.207 98.177 124.269 98.879C125.349 99.563 126.159 100.472 126.699 101.606C127.239 102.722 127.509 103.928 127.509 105.224V106.574H114.522V104.279H125.16L123.999 105.413C123.999 104.477 123.864 103.676 123.594 103.01C123.324 102.344 122.91 101.831 122.352 101.471C121.812 101.111 121.128 100.931 120.3 100.931C119.472 100.931 118.77 101.12 118.194 101.498C117.618 101.876 117.177 102.425 116.871 103.145C116.583 103.847 116.439 104.693 116.439 105.683C116.439 106.601 116.583 107.42 116.871 108.14C117.159 108.842 117.6 109.4 118.194 109.814C118.788 110.21 119.544 110.408 120.462 110.408C121.38 110.408 122.127 110.228 122.703 109.868C123.279 109.49 123.648 109.031 123.81 108.491H127.266C127.05 109.499 126.636 110.381 126.024 111.137C125.412 111.893 124.629 112.478 123.675 112.892C122.739 113.306 121.668 113.513 120.462 113.513ZM137.016 113.189C135.666 113.189 134.55 113.018 133.668 112.676C132.804 112.316 132.156 111.722 131.724 110.894C131.292 110.048 131.076 108.914 131.076 107.492L131.103 94.208H134.613L134.586 107.735C134.586 108.455 134.775 109.013 135.153 109.409C135.549 109.787 136.107 109.976 136.827 109.976H139.122V113.189H137.016ZM128.754 101.093V98.339H139.122V101.093H128.754ZM148.801 113V98.339H152.554V113H148.801ZM146.749 101.147V98.339H152.554V101.147H146.749ZM150.178 96.584C149.44 96.584 148.891 96.395 148.531 96.017C148.189 95.621 148.018 95.135 148.018 94.559C148.018 93.947 148.189 93.452 148.531 93.074C148.891 92.696 149.44 92.507 150.178 92.507C150.916 92.507 151.456 92.696 151.798 93.074C152.14 93.452 152.311 93.947 152.311 94.559C152.311 95.135 152.14 95.621 151.798 96.017C151.456 96.395 150.916 96.584 150.178 96.584ZM157.068 113V93.29H160.821V113H157.068ZM155.232 96.098V93.29H160.821V96.098H155.232ZM165.808 113V98.339H169.561V113H165.808ZM163.756 101.147V98.339H169.561V101.147H163.756ZM167.185 96.584C166.447 96.584 165.898 96.395 165.538 96.017C165.196 95.621 165.025 95.135 165.025 94.559C165.025 93.947 165.196 93.452 165.538 93.074C165.898 92.696 166.447 92.507 167.185 92.507C167.923 92.507 168.463 92.696 168.805 93.074C169.147 93.452 169.318 93.947 169.318 94.559C169.318 95.135 169.147 95.621 168.805 96.017C168.463 96.395 167.923 96.584 167.185 96.584ZM173.886 113V98.339H176.856V104.63H176.586C176.586 103.154 176.775 101.921 177.153 100.931C177.531 99.923 178.089 99.167 178.827 98.663C179.583 98.141 180.519 97.88 181.635 97.88H181.797C182.931 97.88 183.867 98.141 184.605 98.663C185.361 99.167 185.919 99.923 186.279 100.931C186.657 101.921 186.846 103.154 186.846 104.63H185.901C185.901 103.154 186.09 101.921 186.468 100.931C186.864 99.923 187.431 99.167 188.169 98.663C188.925 98.141 189.861 97.88 190.977 97.88H191.139C192.273 97.88 193.218 98.141 193.974 98.663C194.73 99.167 195.297 99.923 195.675 100.931C196.071 101.921 196.269 103.154 196.269 104.63V113H192.516V104.279C192.516 103.361 192.282 102.632 191.814 102.092C191.346 101.534 190.68 101.255 189.816 101.255C188.952 101.255 188.259 101.543 187.737 102.119C187.215 102.677 186.954 103.433 186.954 104.387V113H183.201V104.279C183.201 103.361 182.967 102.632 182.499 102.092C182.031 101.534 181.365 101.255 180.501 101.255C179.637 101.255 178.944 101.543 178.422 102.119C177.9 102.677 177.639 103.433 177.639 104.387V113H173.886ZM200.981 113V98.339H204.734V113H200.981ZM198.929 101.147V98.339H204.734V101.147H198.929ZM202.358 96.584C201.62 96.584 201.071 96.395 200.711 96.017C200.369 95.621 200.198 95.135 200.198 94.559C200.198 93.947 200.369 93.452 200.711 93.074C201.071 92.696 201.62 92.507 202.358 92.507C203.096 92.507 203.636 92.696 203.978 93.074C204.32 93.452 204.491 93.947 204.491 94.559C204.491 95.135 204.32 95.621 203.978 96.017C203.636 96.395 203.096 96.584 202.358 96.584ZM215.432 113.189C214.082 113.189 212.966 113.018 212.084 112.676C211.22 112.316 210.572 111.722 210.14 110.894C209.708 110.048 209.492 108.914 209.492 107.492L209.519 94.208H213.029L213.002 107.735C213.002 108.455 213.191 109.013 213.569 109.409C213.965 109.787 214.523 109.976 215.243 109.976H217.538V113.189H215.432ZM207.17 101.093V98.339H217.538V101.093H207.17ZM229.518 113V108.653H228.897V103.82C228.897 102.974 228.69 102.344 228.276 101.93C227.862 101.516 227.223 101.309 226.359 101.309C225.909 101.309 225.369 101.318 224.739 101.336C224.109 101.354 223.47 101.381 222.822 101.417C222.192 101.435 221.625 101.462 221.121 101.498V98.312C221.535 98.276 222.003 98.24 222.525 98.204C223.047 98.168 223.578 98.15 224.118 98.15C224.676 98.132 225.198 98.123 225.684 98.123C227.196 98.123 228.447 98.321 229.437 98.717C230.445 99.113 231.201 99.734 231.705 100.58C232.227 101.426 232.488 102.533 232.488 103.901V113H229.518ZM224.793 113.378C223.731 113.378 222.795 113.189 221.985 112.811C221.193 112.433 220.572 111.893 220.122 111.191C219.69 110.489 219.474 109.643 219.474 108.653C219.474 107.573 219.735 106.691 220.257 106.007C220.797 105.323 221.544 104.81 222.498 104.468C223.47 104.126 224.604 103.955 225.9 103.955H229.302V106.196H225.846C224.982 106.196 224.316 106.412 223.848 106.844C223.398 107.258 223.173 107.798 223.173 108.464C223.173 109.13 223.398 109.67 223.848 110.084C224.316 110.498 224.982 110.705 225.846 110.705C226.368 110.705 226.845 110.615 227.277 110.435C227.727 110.237 228.096 109.913 228.384 109.463C228.69 108.995 228.861 108.365 228.897 107.573L229.815 108.626C229.725 109.652 229.473 110.516 229.059 111.218C228.663 111.92 228.105 112.46 227.385 112.838C226.683 113.198 225.819 113.378 224.793 113.378ZM242.583 113.486C241.557 113.486 240.612 113.297 239.748 112.919C238.884 112.541 238.137 112.01 237.507 111.326C236.877 110.642 236.391 109.85 236.049 108.95C235.707 108.032 235.536 107.042 235.536 105.98V105.413C235.536 104.369 235.698 103.388 236.022 102.47C236.364 101.552 236.832 100.751 237.426 100.067C238.038 99.383 238.767 98.852 239.613 98.474C240.477 98.078 241.431 97.88 242.475 97.88C243.627 97.88 244.635 98.132 245.499 98.636C246.381 99.122 247.083 99.86 247.605 100.85C248.127 101.84 248.415 103.082 248.469 104.576L247.362 103.28V93.29H251.115V113H248.145V106.763H248.793C248.739 108.257 248.433 109.508 247.875 110.516C247.317 111.506 246.579 112.253 245.661 112.757C244.761 113.243 243.735 113.486 242.583 113.486ZM243.42 110.327C244.158 110.327 244.833 110.165 245.445 109.841C246.057 109.499 246.543 109.013 246.903 108.383C247.281 107.735 247.47 106.979 247.47 106.115V105.035C247.47 104.171 247.281 103.451 246.903 102.875C246.525 102.281 246.03 101.831 245.418 101.525C244.806 101.201 244.14 101.039 243.42 101.039C242.61 101.039 241.89 101.237 241.26 101.633C240.648 102.011 240.162 102.551 239.802 103.253C239.46 103.955 239.289 104.774 239.289 105.71C239.289 106.646 239.469 107.465 239.829 108.167C240.189 108.851 240.675 109.382 241.287 109.76C241.917 110.138 242.628 110.327 243.42 110.327ZM262.434 113.513C261.138 113.513 259.995 113.306 259.005 112.892C258.015 112.478 257.178 111.92 256.494 111.218C255.81 110.498 255.288 109.688 254.928 108.788C254.586 107.888 254.415 106.952 254.415 105.98V105.413C254.415 104.405 254.595 103.451 254.955 102.551C255.333 101.633 255.864 100.823 256.548 100.121C257.25 99.401 258.096 98.843 259.086 98.447C260.076 98.033 261.192 97.826 262.434 97.826C263.676 97.826 264.792 98.033 265.782 98.447C266.772 98.843 267.609 99.401 268.293 100.121C268.995 100.823 269.526 101.633 269.886 102.551C270.246 103.451 270.426 104.405 270.426 105.413V105.98C270.426 106.952 270.246 107.888 269.886 108.788C269.544 109.688 269.031 110.498 268.347 111.218C267.663 111.92 266.826 112.478 265.836 112.892C264.846 113.306 263.712 113.513 262.434 113.513ZM262.434 110.3C263.352 110.3 264.126 110.102 264.756 109.706C265.386 109.292 265.863 108.743 266.187 108.059C266.511 107.357 266.673 106.565 266.673 105.683C266.673 104.783 266.502 103.991 266.16 103.307C265.836 102.605 265.35 102.056 264.702 101.66C264.072 101.246 263.316 101.039 262.434 101.039C261.552 101.039 260.787 101.246 260.139 101.66C259.509 102.056 259.023 102.605 258.681 103.307C258.339 103.991 258.168 104.783 258.168 105.683C258.168 106.565 258.33 107.357 258.654 108.059C258.996 108.743 259.482 109.292 260.112 109.706C260.742 110.102 261.516 110.3 262.434 110.3ZM96.4442 147.081C94.7522 147.081 93.3302 146.829 92.1782 146.325C91.0442 145.803 90.1802 145.074 89.5862 144.138C89.0102 143.184 88.7222 142.059 88.7222 140.763H92.1782C92.1782 141.321 92.3222 141.852 92.6102 142.356C92.8982 142.86 93.3482 143.274 93.9602 143.598C94.5902 143.904 95.4182 144.057 96.4442 144.057C97.7942 144.057 98.8202 143.796 99.5222 143.274C100.224 142.752 100.575 142.104 100.575 141.33C100.575 140.628 100.269 140.043 99.6572 139.575C99.0632 139.107 98.1362 138.819 96.8762 138.711L95.3642 138.576C93.5102 138.396 92.0342 137.838 90.9362 136.902C89.8382 135.948 89.2892 134.598 89.2892 132.852C89.2892 131.646 89.5592 130.629 90.0992 129.801C90.6572 128.973 91.4492 128.352 92.4752 127.938C93.5192 127.506 94.7522 127.29 96.1742 127.29C97.6502 127.29 98.9012 127.533 99.9272 128.019C100.971 128.505 101.763 129.207 102.303 130.125C102.861 131.025 103.14 132.123 103.14 133.419H99.6842C99.6842 132.861 99.5492 132.348 99.2792 131.88C99.0272 131.412 98.6402 131.034 98.1182 130.746C97.6142 130.458 96.9662 130.314 96.1742 130.314C95.4542 130.314 94.8422 130.422 94.3382 130.638C93.8342 130.854 93.4472 131.151 93.1772 131.529C92.9072 131.907 92.7722 132.348 92.7722 132.852C92.7722 133.482 92.9972 134.04 93.4472 134.526C93.9152 135.012 94.6622 135.3 95.6882 135.39L97.2002 135.525C99.2702 135.705 100.926 136.281 102.168 137.253C103.428 138.225 104.058 139.584 104.058 141.33C104.058 142.536 103.752 143.571 103.14 144.435C102.546 145.281 101.682 145.938 100.548 146.406C99.4142 146.856 98.0462 147.081 96.4442 147.081ZM94.7972 150.483V146.541H97.9292V150.483H94.7972ZM94.6892 128.613V124.671H97.8212V128.613H94.6892ZM114.814 147.567C113.356 147.567 112.114 147.324 111.088 146.838C110.08 146.334 109.261 145.65 108.631 144.786C108.001 143.922 107.542 142.923 107.254 141.789C106.966 140.637 106.822 139.422 106.822 138.144V136.956C106.822 133.734 107.632 131.295 109.252 129.639C110.89 127.965 113.284 127.128 116.434 127.128C117.118 127.128 117.757 127.146 118.351 127.182C118.945 127.218 119.539 127.272 120.133 127.344V130.557C119.539 130.485 118.927 130.431 118.297 130.395C117.685 130.359 117.019 130.341 116.299 130.341C114.787 130.341 113.599 130.602 112.735 131.124C111.871 131.646 111.25 132.411 110.872 133.419C110.512 134.427 110.332 135.678 110.332 137.172V138.927L109.468 140.169C109.486 138.783 109.756 137.64 110.278 136.74C110.818 135.822 111.556 135.138 112.492 134.688C113.428 134.22 114.499 133.986 115.705 133.986C117.109 133.986 118.306 134.265 119.296 134.823C120.286 135.381 121.042 136.155 121.564 137.145C122.104 138.135 122.374 139.287 122.374 140.601C122.374 141.969 122.068 143.184 121.456 144.246C120.844 145.29 119.971 146.109 118.837 146.703C117.721 147.279 116.38 147.567 114.814 147.567ZM114.733 144.354C115.579 144.354 116.299 144.201 116.893 143.895C117.487 143.571 117.937 143.13 118.243 142.572C118.549 142.014 118.702 141.375 118.702 140.655C118.702 139.917 118.549 139.269 118.243 138.711C117.955 138.153 117.523 137.721 116.947 137.415C116.371 137.109 115.678 136.956 114.868 136.956C114.094 136.956 113.383 137.1 112.735 137.388C112.105 137.658 111.601 138.072 111.223 138.63C110.863 139.17 110.683 139.845 110.683 140.655C110.683 141.357 110.827 141.987 111.115 142.545C111.421 143.103 111.871 143.544 112.465 143.868C113.077 144.192 113.833 144.354 114.733 144.354ZM133.734 147.513C132.186 147.513 130.872 147.261 129.792 146.757C128.712 146.235 127.83 145.533 127.146 144.651C126.462 143.751 125.958 142.725 125.634 141.573C125.328 140.403 125.175 139.179 125.175 137.901V136.389C125.175 134.571 125.481 132.933 126.093 131.475C126.705 130.017 127.641 128.865 128.901 128.019C130.161 127.155 131.772 126.723 133.734 126.723C135.678 126.723 137.28 127.155 138.54 128.019C139.8 128.865 140.727 130.017 141.321 131.475C141.933 132.933 142.239 134.571 142.239 136.389V137.901C142.239 139.179 142.077 140.403 141.753 141.573C141.447 142.725 140.952 143.751 140.268 144.651C139.602 145.533 138.729 146.235 137.649 146.757C136.569 147.261 135.264 147.513 133.734 147.513ZM133.734 144.003C135.336 144.003 136.515 143.454 137.271 142.356C138.027 141.24 138.405 139.512 138.405 137.172C138.405 134.688 138.018 132.915 137.244 131.853C136.47 130.773 135.3 130.233 133.734 130.233C132.15 130.233 130.962 130.773 130.17 131.853C129.396 132.915 129.009 134.67 129.009 137.118C129.009 139.476 129.396 141.213 130.17 142.329C130.944 143.445 132.132 144.003 133.734 144.003ZM145.448 147V142.68H149.66V147H145.448ZM161.393 147.513C159.845 147.513 158.531 147.261 157.451 146.757C156.371 146.235 155.489 145.533 154.805 144.651C154.121 143.751 153.617 142.725 153.293 141.573C152.987 140.403 152.834 139.179 152.834 137.901V136.389C152.834 134.571 153.14 132.933 153.752 131.475C154.364 130.017 155.3 128.865 156.56 128.019C157.82 127.155 159.431 126.723 161.393 126.723C163.337 126.723 164.939 127.155 166.199 128.019C167.459 128.865 168.386 130.017 168.98 131.475C169.592 132.933 169.898 134.571 169.898 136.389V137.901C169.898 139.179 169.736 140.403 169.412 141.573C169.106 142.725 168.611 143.751 167.927 144.651C167.261 145.533 166.388 146.235 165.308 146.757C164.228 147.261 162.923 147.513 161.393 147.513ZM161.393 144.003C162.995 144.003 164.174 143.454 164.93 142.356C165.686 141.24 166.064 139.512 166.064 137.172C166.064 134.688 165.677 132.915 164.903 131.853C164.129 130.773 162.959 130.233 161.393 130.233C159.809 130.233 158.621 130.773 157.829 131.853C157.055 132.915 156.668 134.67 156.668 137.118C156.668 139.476 157.055 141.213 157.829 142.329C158.603 143.445 159.791 144.003 161.393 144.003ZM181.801 147.513C180.253 147.513 178.939 147.261 177.859 146.757C176.779 146.235 175.897 145.533 175.213 144.651C174.529 143.751 174.025 142.725 173.701 141.573C173.395 140.403 173.242 139.179 173.242 137.901V136.389C173.242 134.571 173.548 132.933 174.16 131.475C174.772 130.017 175.708 128.865 176.968 128.019C178.228 127.155 179.839 126.723 181.801 126.723C183.745 126.723 185.347 127.155 186.607 128.019C187.867 128.865 188.794 130.017 189.388 131.475C190 132.933 190.306 134.571 190.306 136.389V137.901C190.306 139.179 190.144 140.403 189.82 141.573C189.514 142.725 189.019 143.751 188.335 144.651C187.669 145.533 186.796 146.235 185.716 146.757C184.636 147.261 183.331 147.513 181.801 147.513ZM181.801 144.003C183.403 144.003 184.582 143.454 185.338 142.356C186.094 141.24 186.472 139.512 186.472 137.172C186.472 134.688 186.085 132.915 185.311 131.853C184.537 130.773 183.367 130.233 181.801 130.233C180.217 130.233 179.029 130.773 178.237 131.853C177.463 132.915 177.076 134.67 177.076 137.118C177.076 139.476 177.463 141.213 178.237 142.329C179.011 143.445 180.199 144.003 181.801 144.003ZM202.21 147.513C200.662 147.513 199.348 147.261 198.268 146.757C197.188 146.235 196.306 145.533 195.622 144.651C194.938 143.751 194.434 142.725 194.11 141.573C193.804 140.403 193.651 139.179 193.651 137.901V136.389C193.651 134.571 193.957 132.933 194.569 131.475C195.181 130.017 196.117 128.865 197.377 128.019C198.637 127.155 200.248 126.723 202.21 126.723C204.154 126.723 205.756 127.155 207.016 128.019C208.276 128.865 209.203 130.017 209.797 131.475C210.409 132.933 210.715 134.571 210.715 136.389V137.901C210.715 139.179 210.553 140.403 210.229 141.573C209.923 142.725 209.428 143.751 208.744 144.651C208.078 145.533 207.205 146.235 206.125 146.757C205.045 147.261 203.74 147.513 202.21 147.513ZM202.21 144.003C203.812 144.003 204.991 143.454 205.747 142.356C206.503 141.24 206.881 139.512 206.881 137.172C206.881 134.688 206.494 132.915 205.72 131.853C204.946 130.773 203.776 130.233 202.21 130.233C200.626 130.233 199.438 130.773 198.646 131.853C197.872 132.915 197.485 134.67 197.485 137.118C197.485 139.476 197.872 141.213 198.646 142.329C199.42 143.445 200.608 144.003 202.21 144.003Z" fill="black"/>
<defs>
<filter id="filter0_d_2_8" x="0" y="0" width="300" height="221" filterUnits="userSpaceOnUse" color-interpolation-filters="sRGB">
<feFlood flood-opacity="0" result="BackgroundImageFix"/>
<feColorMatrix in="SourceAlpha" type="matrix" values="0 0 0 0 0 0 0 0 0 0 0 0 0 0 0 0 0 0 127 0" result="hardAlpha"/>
<feOffset dy="4"/>
<feGaussianBlur stdDeviation="2"/>
<feComposite in2="hardAlpha" operator="out"/>
<feColorMatrix type="matrix" values="0 0 0 0 0 0 0 0 0 0 0 0 0 0 0 0 0 0 0.25 0"/>
<feBlend mode="normal" in2="BackgroundImageFix" result="effect1_dropShadow_2_8"/>
<feBlend mode="normal" in="SourceGraphic" in2="effect1_dropShadow_2_8" result="shape"/>
</filter>
</defs>
</svg>
