<?xml version="1.0" standalone="no"?>
<!DOCTYPE svg PUBLIC "-//W3C//DTD SVG 20010904//EN"
 "http://www.w3.org/TR/2001/REC-SVG-20010904/DTD/svg10.dtd">
<svg version="1.0" xmlns="http://www.w3.org/2000/svg"
 width="160.0000000pt" height="34.6000000pt" viewBox="0 0 1600.000000 346.000000"
 preserveAspectRatio="xMidYMid meet">

<g transform="translate(0.000000,346.000000) scale(0.100000,-0.100000)"
 stroke="none">
<path d="M1385 3048 c-48 -17 -94 -56 -115 -98 -19 -37 -20 -59 -20 -378 l0
-340 -47 -6 c-240 -34 -434 -132 -588 -297 -154 -165 -238 -360 -252 -585 -27
-452 270 -857 711 -969 l99 -25 668 0 669 0 0 225 0 225 -617 0 c-676 0 -698
2 -809 58 -209 107 -312 346 -243 568 47 152 163 269 324 328 20 7 251 12 685
16 l655 5 3 228 2 227 -430 0 -430 0 0 323 c0 205 -4 337 -11 362 -28 101
-155 168 -254 133z"/>
<path d="M3665 3045 c-59 -21 -110 -81 -124 -144 -7 -32 -11 -171 -11 -361 l0
-310 -425 0 -425 0 0 -940 0 -940 659 0 c698 0 715 1 851 48 287 100 514 342
600 643 27 93 38 296 21 395 -19 106 -67 239 -119 328 -55 93 -180 229 -268
292 -116 83 -283 147 -436 169 l-48 6 0 318 c0 366 -4 396 -69 454 -61 55
-130 69 -206 42z m349 -1294 c135 -38 264 -154 318 -289 19 -48 23 -75 23
-178 l0 -121 -42 -85 c-49 -98 -127 -179 -215 -222 -104 -51 -157 -56 -605
-56 l-413 0 0 485 0 485 433 0 c394 0 439 -2 501 -19z"/>
<path d="M3855 1455 c-5 -2 -21 -6 -35 -9 -58 -13 -110 -87 -110 -156 0 -133
142 -210 257 -140 94 57 95 216 1 276 -32 21 -92 36 -113 29z"/>
<path d="M3384 1378 c-41 -31 -44 -37 -44 -88 0 -51 3 -57 44 -88 53 -41 130
-22 162 39 19 38 18 68 -5 103 -39 58 -107 73 -157 34z"/>
<path d="M14407 2683 c-4 -3 -7 -53 -7 -110 l0 -103 155 0 155 0 0 110 0 110
-148 0 c-82 0 -152 -3 -155 -7z"/>
<path d="M5910 2624 c-126 -27 -188 -103 -209 -257 -14 -98 -14 -419 -1 -510
22 -149 84 -205 250 -227 127 -16 431 -7 558 16 l32 6 0 103 0 102 -225 -1
c-292 -1 -269 -21 -273 229 -4 193 7 283 35 307 12 10 69 13 237 13 l221 1 3
101 3 101 -28 6 c-125 27 -497 33 -603 10z"/>
<path d="M6845 2373 c-105 -13 -137 -25 -180 -66 -28 -28 -48 -58 -56 -87 -15
-51 -19 -356 -6 -433 10 -56 53 -111 105 -133 75 -31 332 -44 502 -24 114 13
166 40 200 105 23 46 25 60 28 222 7 308 -28 377 -204 408 -72 13 -313 18
-389 8z m257 -181 c15 -15 27 -246 17 -326 -7 -66 -26 -79 -111 -74 -37 2 -73
9 -80 16 -9 9 -14 59 -16 161 -4 159 7 226 36 235 31 9 142 0 154 -12z"/>
<path d="M7688 2370 c-42 -4 -97 -11 -122 -14 l-46 -7 0 -355 0 -354 150 0
150 0 0 280 0 279 35 7 c60 11 146 0 161 -21 11 -15 14 -77 14 -282 l0 -263
156 0 155 0 -3 288 c-3 269 -4 290 -24 333 -28 61 -85 95 -179 109 -79 11
-330 11 -447 0z"/>
<path d="M9522 2369 c-83 -11 -147 -42 -178 -88 -36 -55 -46 -135 -42 -331 3
-164 5 -178 28 -220 16 -28 40 -53 65 -67 75 -41 296 -54 549 -32 187 16 180
12 184 92 l3 66 -230 -6 c-280 -7 -281 -7 -281 87 l0 59 263 0 262 0 -1 124
c-2 227 -48 291 -228 316 -88 12 -300 13 -394 0z m292 -171 c10 -14 16 -44 16
-75 l0 -53 -105 0 -105 0 0 59 c0 81 12 91 105 91 65 0 76 -3 89 -22z"/>
<path d="M10380 2373 c-14 -2 -55 -8 -92 -14 l-68 -11 0 -354 0 -354 155 0
155 0 0 279 0 280 47 7 c25 4 93 4 150 0 l103 -7 0 75 c0 85 11 77 -125 96
-67 9 -273 11 -325 3z"/>
<path d="M11105 2374 c-117 -23 -129 -28 -165 -61 -63 -56 -75 -107 -75 -313
0 -167 1 -177 25 -225 45 -89 146 -119 383 -113 l117 3 0 -77 c0 -66 -3 -81
-21 -99 -20 -20 -28 -21 -245 -18 l-225 4 3 -75 3 -75 80 -12 c100 -15 487
-17 553 -3 28 6 65 24 87 42 71 59 70 51 73 549 l3 447 -43 6 c-148 22 -482
34 -553 20z m263 -170 c22 -6 22 -8 22 -185 l0 -179 -25 -6 c-14 -3 -55 -4
-91 -2 -92 6 -94 10 -94 179 0 145 8 184 37 192 27 7 125 8 151 1z"/>
<path d="M12025 2373 c-141 -18 -200 -55 -232 -146 -26 -75 -27 -400 0 -468
38 -100 102 -127 316 -136 130 -5 368 7 459 23 l32 6 0 68 0 68 -241 -2 c-278
-1 -272 -3 -267 89 l3 50 240 2 c132 2 250 3 263 3 21 0 22 3 22 98 0 247 -47
316 -233 341 -74 10 -296 13 -362 4z m259 -169 c11 -10 16 -34 16 -75 l0 -59
-105 0 -105 0 0 53 c0 83 16 97 105 97 54 0 78 -4 89 -16z"/>
<path d="M12868 2370 c-42 -4 -97 -11 -122 -14 l-46 -7 0 -355 0 -354 150 0
150 0 0 279 0 280 46 7 c65 9 135 -1 151 -22 10 -14 13 -80 13 -281 l0 -263
156 0 155 0 -3 293 c-3 280 -4 294 -25 334 -30 56 -89 90 -178 103 -79 11
-330 11 -447 0z"/>
<path d="M13791 2369 c-125 -21 -173 -80 -192 -235 -13 -98 -6 -307 11 -367
17 -58 64 -104 123 -122 99 -30 414 -29 585 1 l32 6 0 73 0 74 -200 -2 c-179
-2 -201 0 -217 16 -16 16 -18 38 -18 182 0 222 -17 207 234 206 l191 -1 0 74
0 74 -37 6 c-165 26 -403 33 -512 15z"/>
<path d="M14998 2370 c-42 -4 -97 -11 -122 -14 l-46 -7 0 -68 0 -69 215 6
c260 6 265 4 265 -83 l0 -55 -197 0 c-241 0 -270 -9 -305 -87 -31 -71 -30
-194 3 -254 26 -47 72 -83 128 -100 85 -25 513 -20 652 8 l30 6 -3 291 c-3
272 -4 293 -24 326 -23 40 -70 75 -123 91 -44 14 -368 20 -473 9z m312 -510
l0 -80 -83 0 c-105 0 -120 10 -121 77 -1 75 10 83 115 83 l89 0 0 -80z"/>
<path d="M8457 2038 c51 -178 98 -340 104 -360 l10 -38 254 0 c140 0 255 2
255 5 0 3 45 161 100 352 55 191 100 350 100 355 0 5 -71 7 -157 6 l-156 -3
-66 -257 c-36 -141 -69 -259 -72 -262 -3 -4 -21 51 -39 121 -17 71 -48 190
-68 266 l-35 137 -162 0 -162 0 94 -322z"/>
<path d="M14400 2000 l0 -360 155 0 155 0 0 360 0 360 -155 0 -155 0 0 -360z"/>
<path d="M12670 1415 l0 -85 115 0 115 0 0 85 0 85 -115 0 -115 0 0 -85z"/>
<path d="M13727 1493 c-4 -3 -7 -42 -7 -85 l0 -78 120 0 120 0 0 85 0 85 -113
0 c-63 0 -117 -3 -120 -7z"/>
<path d="M15360 1080 l0 -420 120 0 120 0 0 420 0 420 -120 0 -120 0 0 -420z"/>
<path d="M1255 1451 c-49 -12 -74 -30 -99 -69 -29 -47 -36 -84 -24 -133 16
-62 65 -107 130 -121 52 -11 59 -10 105 13 59 31 93 84 93 149 0 45 -26 101
-59 128 -37 29 -101 44 -146 33z"/>
<path d="M11808 1444 c-5 -4 -8 -182 -8 -396 l0 -389 308 3 c381 5 396 8 444
115 20 44 22 64 23 258 0 180 -3 218 -19 264 -21 61 -78 124 -122 136 -40 10
-617 19 -626 9z m458 -182 c32 -21 39 -58 39 -218 0 -208 3 -204 -137 -204
l-98 0 0 215 0 215 93 0 c50 0 97 -4 103 -8z"/>
<path d="M5712 1098 l3 -343 2660 -3 c2518 -2 2660 -3 2669 -20 15 -28 78 -82
121 -105 58 -30 173 -30 238 1 105 50 162 140 161 258 0 58 -5 81 -29 128 -52
102 -135 151 -255 150 -90 0 -137 -21 -209 -93 -34 -34 -55 -47 -72 -45 -13 1
-1147 3 -2519 3 l-2495 1 3 205 3 205 -141 0 -140 0 2 -342z"/>
<path d="M14110 1340 l0 -100 -50 0 -50 0 0 -70 0 -70 50 0 50 0 0 -157 c0
-180 12 -222 71 -264 32 -23 41 -24 189 -24 85 0 168 4 183 8 27 7 28 10 26
65 l-2 57 -97 -3 c-133 -4 -130 -9 -130 174 l0 144 100 0 100 0 0 70 0 70
-100 0 -99 0 -3 98 -3 97 -117 3 -118 3 0 -101z"/>
<path d="M1664 1381 c-63 -39 -66 -134 -7 -181 67 -52 173 2 173 89 0 85 -94
138 -166 92z"/>
<path d="M13122 1240 c-53 -11 -97 -42 -120 -83 -14 -27 -17 -60 -17 -202 0
-163 1 -171 24 -204 37 -52 77 -63 244 -69 l147 -5 0 -61 c0 -103 3 -101 -209
-99 l-181 2 0 -54 c0 -30 1 -55 3 -56 40 -12 225 -26 327 -24 147 2 212 15
248 48 52 48 52 51 52 435 l0 360 -32 6 c-58 11 -442 16 -486 6z m278 -275 l0
-156 -77 3 c-101 4 -105 11 -101 164 4 140 6 144 104 144 l74 0 0 -155z"/>
<path d="M14738 1240 c-37 -5 -72 -11 -78 -15 -5 -3 -10 -27 -10 -53 l0 -47
174 3 c208 5 216 2 216 -68 l0 -49 -175 -3 -175 -3 -31 -32 c-37 -36 -53 -108
-40 -179 11 -59 33 -89 84 -116 40 -22 51 -23 287 -23 180 1 251 4 268 14 l23
12 -3 232 c-3 221 -4 233 -25 263 -42 59 -78 68 -273 70 -96 1 -205 -1 -242
-6z m302 -405 l0 -65 -74 0 c-55 0 -77 4 -87 16 -18 22 -22 56 -9 88 9 25 12
26 90 26 l80 0 0 -65z"/>
<path d="M12670 950 l0 -290 115 0 115 0 0 290 0 290 -115 0 -115 0 0 -290z"/>
<path d="M13727 1233 c-4 -3 -7 -134 -7 -290 l0 -283 120 0 120 0 0 290 0 290
-113 0 c-63 0 -117 -3 -120 -7z"/>
</g>
</svg>
