<?xml version="1.0" standalone="no"?>
<!DOCTYPE svg PUBLIC "-//W3C//DTD SVG 20010904//EN"
 "http://www.w3.org/TR/2001/REC-SVG-20010904/DTD/svg10.dtd">
<svg version="1.0" xmlns="http://www.w3.org/2000/svg"
 width="1280.000000pt" height="1280.000000pt" viewBox="0 0 1280.000000 1280.000000"
 preserveAspectRatio="xMidYMid meet">

<g transform="translate(0.000000,1280.000000) scale(0.100000,-0.100000)"
fill="#000000" stroke="none">
<path d="M3743 9426 c-154 -38 -268 -142 -329 -302 -17 -46 -19 -98 -22 -796
l-3 -746 -62 -7 c-568 -58 -1093 -341 -1446 -780 -279 -347 -431 -730 -463
-1168 -40 -554 136 -1093 496 -1515 344 -405 817 -661 1356 -734 74 -10 408
-13 1515 -13 l1420 0 3 508 2 507 -57 1 c-32 0 -659 2 -1393 4 -734 1 -1357 6
-1385 10 -417 60 -753 339 -885 733 -30 90 -60 264 -60 347 0 76 29 251 55
334 100 315 360 583 672 692 157 55 82 52 1623 58 l1425 6 0 505 0 505 -955 5
-955 5 -5 745 c-6 835 -2 791 -81 909 -62 94 -157 159 -269 185 -77 18 -126
19 -197 2z"/>
<path d="M8850 9422 c-114 -30 -201 -91 -262 -186 -76 -118 -72 -74 -78 -906
l-5 -745 -958 -3 -957 -2 2 -2108 3 -2107 1435 0 c1346 0 1442 1 1545 18 194
33 387 87 520 147 137 62 160 73 243 122 479 283 824 731 975 1268 94 330 93
783 0 1110 -210 732 -782 1296 -1505 1483 -99 26 -247 53 -340 63 l-57 5 -3
747 c-3 701 -5 750 -22 797 -59 156 -189 271 -344 304 -71 15 -114 13 -192 -7z
m685 -2889 c318 -85 559 -274 702 -550 110 -212 148 -420 119 -638 -45 -339
-227 -623 -513 -801 -131 -82 -284 -133 -453 -151 -47 -5 -492 -9 -990 -9
l-905 1 -3 1088 -2 1088 982 -4 c966 -3 984 -3 1063 -24z"/>
<path d="M9170 5841 c-84 -27 -173 -95 -217 -165 -46 -72 -68 -178 -53 -255
31 -167 141 -279 304 -313 117 -25 261 25 345 119 66 74 96 156 95 258 -1 105
-33 175 -112 254 -80 80 -135 104 -247 107 -49 2 -101 0 -115 -5z"/>
<path d="M8253 5715 c-120 -27 -189 -124 -181 -254 7 -133 95 -222 228 -229
56 -3 74 0 117 22 147 74 189 255 86 375 -67 79 -152 108 -250 86z"/>
<path d="M3405 5841 c-138 -36 -260 -175 -280 -317 -20 -147 66 -311 199 -378
150 -76 315 -51 435 64 69 67 104 145 109 247 8 163 -67 287 -218 363 -48 25
-187 37 -245 21z"/>
<path d="M4339 5691 c-66 -35 -105 -87 -121 -162 -24 -117 26 -219 134 -273
207 -103 427 118 325 327 -47 95 -114 137 -218 137 -54 0 -76 -5 -120 -29z"/>
</g>
</svg>
